<svg fill="none" height="816" viewBox="0 0 816 816" width="816" xmlns="http://www.w3.org/2000/svg"><g stroke-linecap="round"><path d="m320.736 337.539-58.198 69.311" stroke="#f15a24" stroke-linejoin="round" stroke-width="6.26753"/><circle cx="277.301" cy="353.081" r="12.0128" stroke="#f15a24" stroke-linejoin="round" stroke-width="9.78818"/><circle cx="305.776" cy="391.344" r="12.0128" stroke="#f15a24" stroke-linejoin="round" stroke-width="9.78818"/><path d="m386.371 405.116h-41.559" stroke="#f15a24" stroke-linejoin="round" stroke-width="6.26753"/><path d="m401.122 560.338h-121.011c-24.362 0-44.111-19.749-44.111-44.111v-225.116c0-24.362 19.749-44.111 44.111-44.111h246.32c24.361 0 44.11 19.749 44.11 44.111v269.227" stroke="#000" stroke-width="17.8359"/><path d="m240.818 308.383 322.381-.001" stroke="#000" stroke-width="17.8359"/></g><path d="m470.271 560.179c0-2.435-.967-4.771-2.689-6.494-1.723-1.722-4.059-2.689-6.494-2.689-.071 0-.139.009-.209.01h-20.643c-.173 0-.344-.042-.498-.124-.153-.081-.284-.199-.381-.343-.098-.144-.158-.309-.177-.482-.018-.172.006-.347.071-.508l30.191-75.273c.496-1.238.681-2.578.539-3.903-.141-1.325-.606-2.596-1.353-3.7s-1.753-2.008-2.93-2.633-2.49-.952-3.823-.952h-31.82c-.18-.011-.358-.027-.541-.027-1.175 0-2.339.231-3.426.681-1.086.45-2.072 1.109-2.904 1.94-.831.832-1.49 1.818-1.94 2.904s-.681 2.25-.681 3.426v.002.001c-.001 1.176.23 2.34.68 3.426.449 1.086 1.109 2.073 1.94 2.904s1.818 1.49 2.905 1.939c1.086.45 2.25.68 3.426.679.141 0 .277-.014.416-.021h16.489c.181 0 .36.045.52.129.159.085.296.208.398.358.101.15.164.323.184.503.019.18-.006.362-.073.53l-26.18 65.382c-.466 1.163-.705 2.405-.705 3.658v8.018c0 2.61 1.037 5.114 2.883 6.96s4.349 2.883 6.96 2.883h30.687c1.205 0 2.399-.237 3.513-.698 1.113-.462 2.125-1.138 2.977-1.99.853-.852 1.529-1.864 1.99-2.978.461-1.113.699-2.307.698-3.512v-.003z" fill="#000"/><path d="m523.418 485.849c.064-3.494-.264-6.984-.978-10.405-.559-2.883-1.677-5.18-3.354-6.892-1.583-1.802-3.819-3.063-6.706-3.784-2.795-.81-6.381-1.216-10.758-1.216-4.192 0-8.992.406-11.88 1.216-2.615.618-4.994 1.98-6.846 3.919-1.676 1.892-2.887 4.46-3.632 7.703-.746 3.153-1.118 7.162-1.118 12.027 0 4.684.046 8.468.139 11.351.122 2.358.402 4.706.839 7.027.351 1.534.965 2.997 1.816 4.324.802 1.144 1.74 2.188 2.794 3.108 1.463 1.285 3.055 2.417 4.751 3.378 1.863 1.081 3.772 2.117 5.728 3.108 1.956.992 3.819 2.027 5.589 3.108 1.668.937 3.216 2.072 4.611 3.379.552.597 1.066 1.229 1.537 1.891.339.4.603.858.779 1.352.161.441.296.891.404 1.348.153.712.225 1.438.214 2.165.093 1.081.14 2.568.14 4.46.039 2.574-.101 5.147-.419 7.702-.09 1.456-.471 2.88-1.118 4.189-.492.849-1.292 1.478-2.236 1.757-.931.27-4.151.405-5.549.405-1.131.022-2.26-.115-3.353-.405-.88-.397-1.612-1.059-2.096-1.892-.552-1.295-.928-2.659-1.117-4.054-.21-2.242-.303-4.493-.28-6.744 0-.251-.013-.502-.039-.752h-.056c-.257-1.792-1.155-3.433-2.529-4.619-1.375-1.187-3.133-1.84-4.952-1.84s-3.577.653-4.951 1.84c-1.374 1.186-2.272 2.827-2.529 4.619h-.044c-.03.275-.043.551-.041.827.001.064.002.126.002.19 0 .019-.003.037-.003.056 0 .032.005.062.005.093.023 1.775.048 3.368.048 4.168 0 5.315.373 9.639 1.118 12.973.838 3.242 2.142 5.81 3.912 7.702 1.833 1.837 4.163 3.104 6.706 3.649 3.247.783 6.581 1.146 9.92 1.081 4.472 0 10.253-.406 13.233-1.217 2.82-.706 5.326-2.321 7.126-4.594 1.863-2.252 3.167-5.36 3.912-9.324.838-4.054 1.258-9.234 1.258-15.54 0-4.595-.14-8.288-.42-11.081-.083-2.345-.507-4.667-1.257-6.892-.542-1.624-1.45-3.103-2.655-4.324-1.217-1.237-2.577-2.325-4.052-3.243-1.349-.849-2.749-1.616-4.191-2.297-1.584-.901-3.26-1.757-5.03-2.568-1.77-.901-3.446-1.802-5.03-2.703-1.405-.865-2.758-1.813-4.052-2.837-.604-.493-1.165-1.035-1.676-1.622-.405-.617-.69-1.305-.839-2.027-.216-1.024-.356-2.063-.419-3.108v-5.135c-.025-1.941.068-3.881.279-5.811.108-1.178.44-2.324.979-3.378.474-.751 1.227-1.286 2.095-1.486.839-.271 3.171-.406 4.475-.406 2.98 0 4.843.856 5.588 2.568.59 1.082.922 2.283.973 3.513.031.984.046 2.263.05 3.604h.053c0 .018-.003.036-.003.054 0 1.998.797 3.914 2.216 5.326 1.419 1.413 3.343 2.206 5.35 2.206 2.006 0 3.931-.793 5.35-2.206 1.418-1.412 2.216-3.328 2.216-5.326 0-.018-.003-.035-.003-.054h.003c.001-1.501.003-2.847.003-3.604z" fill="#000"/><path d="m579.357 471.934c.006-1.227-.243-2.443-.733-3.568-.49-1.126-1.209-2.137-2.112-2.969-.902-.832-1.968-1.466-3.13-1.863-1.162-.396-2.393-.547-3.616-.44-1.223.106-2.41.466-3.486 1.056-1.076.591-2.017 1.4-2.763 2.375-.745.975-1.28 2.095-1.568 3.288-.289 1.193-.326 2.433-.108 3.641v31.461c0 .522-.208 1.023-.577 1.392-.369.37-.87.577-1.392.577h-10.916c-.522 0-1.023-.207-1.392-.577-.369-.369-.577-.87-.577-1.392v-32.783c0-.033-.004-.066-.005-.099.001-.033.005-.066.005-.099 0-2.341-.93-4.587-2.585-6.242-1.656-1.656-3.901-2.586-6.243-2.586-2.341 0-4.586.93-6.242 2.586-1.656 1.655-2.586 3.901-2.586 6.242 0 .033.005.066.005.099.001.033-.005.066-.005.099v88.421l.001.017-.001.016c0 2.341.93 4.587 2.586 6.242 1.656 1.656 3.901 2.586 6.242 2.586 2.342 0 4.587-.93 6.243-2.586 1.655-1.655 2.585-3.901 2.585-6.242l-.001-.016.001-.017v-35.025c0-.522.208-1.023.577-1.392s.87-.577 1.392-.577h10.916c.522 0 1.023.208 1.392.577s.577.87.577 1.392v33.505c-.229 1.269-.176 2.573.155 3.82.331 1.246.933 2.404 1.762 3.392.83.987 1.866 1.78 3.036 2.322s2.446.82 3.735.814c.012 0 .023-.002.035-.002s.023.002.035.002c1.15 0 2.289-.227 3.352-.667 1.062-.44 2.028-1.085 2.841-1.898s1.458-1.779 1.898-2.842c.441-1.062.667-2.201.667-3.351v-88.561c0-.022-.003-.042-.003-.064 0-.021.003-.042.003-.064z" fill="#000"/></svg>