<svg fill="none" height="816" viewBox="0 0 816 816" width="816" xmlns="http://www.w3.org/2000/svg"><g stroke-linecap="round"><path d="m240.125 337.539-58.198 69.311" stroke="#f15a24" stroke-linejoin="round" stroke-width="6.26753"/><circle cx="196.69" cy="353.081" r="12.0128" stroke="#f15a24" stroke-linejoin="round" stroke-width="9.78818"/><circle cx="225.165" cy="391.344" r="12.0128" stroke="#f15a24" stroke-linejoin="round" stroke-width="9.78818"/><path d="m305.76 405.116h-41.559" stroke="#f15a24" stroke-linejoin="round" stroke-width="6.26753"/><path d="m318.122 560.338h-121.011c-24.362 0-44.111-19.749-44.111-44.111v-225.116c0-24.362 19.749-44.111 44.111-44.111h246.32c24.361 0 44.11 19.749 44.11 44.111v269.227" stroke="#000" stroke-width="17.8359"/><path d="m157.818 308.383 322.381-.001" stroke="#000" stroke-width="17.8359"/></g><path d="m387.272 560.179c0-2.435-.968-4.771-2.69-6.494-1.723-1.722-4.059-2.689-6.494-2.689-.071 0-.139.009-.209.01h-20.642c-.174 0-.345-.042-.498-.124-.154-.081-.285-.199-.382-.343-.098-.144-.158-.309-.177-.482-.018-.172.006-.347.071-.508l30.191-75.273c.496-1.238.682-2.578.54-3.903s-.607-2.596-1.354-3.7-1.753-2.008-2.93-2.633-2.49-.952-3.823-.952h-31.819c-.181-.011-.359-.027-.542-.027-1.175 0-2.339.231-3.425.681s-2.073 1.109-2.904 1.94c-.832.832-1.491 1.818-1.941 2.904s-.681 2.25-.681 3.426v.002.001c-.001 1.176.23 2.34.68 3.426.449 1.086 1.109 2.073 1.94 2.904s1.819 1.49 2.905 1.939c1.086.45 2.25.68 3.426.679.141 0 .278-.014.417-.021h16.488c.181 0 .36.045.52.129.16.085.296.208.398.358.101.15.165.323.184.503s-.006.362-.073.53l-26.18 65.382c-.466 1.163-.705 2.405-.705 3.658v8.018c0 2.61 1.037 5.114 2.883 6.96s4.349 2.883 6.96 2.883h30.687c1.206 0 2.399-.237 3.513-.698 1.113-.462 2.125-1.138 2.977-1.99.853-.852 1.529-1.864 1.99-2.978.461-1.113.699-2.307.699-3.512v-.003z" fill="#000"/><path d="m440.418 485.849c.064-3.494-.264-6.984-.978-10.405-.559-2.883-1.677-5.18-3.353-6.892-1.584-1.802-3.819-3.063-6.707-3.784-2.794-.81-6.381-1.216-10.758-1.216-4.192 0-8.992.406-11.88 1.216-2.615.618-4.994 1.98-6.846 3.919-1.676 1.892-2.887 4.46-3.632 7.703-.746 3.153-1.118 7.162-1.118 12.027 0 4.684.046 8.468.139 11.351.122 2.358.402 4.706.839 7.027.351 1.534.965 2.997 1.816 4.324.802 1.144 1.74 2.188 2.794 3.108 1.464 1.285 3.055 2.417 4.751 3.378 1.863 1.081 3.772 2.117 5.728 3.108 1.956.992 3.819 2.027 5.589 3.108 1.668.937 3.216 2.072 4.611 3.379.552.597 1.066 1.229 1.537 1.891.339.4.603.858.779 1.352.161.441.296.891.404 1.348.154.712.225 1.438.214 2.165.093 1.081.14 2.568.14 4.46.039 2.574-.101 5.147-.419 7.702-.09 1.456-.47 2.88-1.118 4.189-.492.849-1.292 1.478-2.236 1.757-.931.27-4.151.405-5.548.405-1.132.022-2.261-.115-3.354-.405-.88-.397-1.612-1.059-2.095-1.892-.553-1.295-.929-2.659-1.118-4.054-.21-2.242-.303-4.493-.279-6.744-.001-.251-.014-.502-.04-.752h-.056c-.257-1.792-1.155-3.433-2.529-4.619-1.374-1.187-3.132-1.84-4.951-1.84s-3.577.653-4.952 1.84c-1.374 1.186-2.272 2.827-2.529 4.619h-.044c-.03.275-.043.551-.041.827.001.064.002.126.002.19 0 .019-.002.037-.002.056 0 .032.004.062.005.093.022 1.775.047 3.368.047 4.168 0 5.315.373 9.639 1.118 12.973.838 3.242 2.142 5.81 3.912 7.702 1.833 1.837 4.163 3.104 6.707 3.649 3.246.783 6.58 1.146 9.919 1.081 4.472 0 10.253-.406 13.234-1.217 2.819-.706 5.325-2.321 7.125-4.594 1.863-2.252 3.167-5.36 3.912-9.324.839-4.054 1.258-9.234 1.258-15.54 0-4.595-.14-8.288-.42-11.081-.083-2.345-.507-4.667-1.257-6.892-.542-1.624-1.45-3.103-2.654-4.324-1.218-1.237-2.578-2.325-4.052-3.243-1.35-.849-2.75-1.616-4.192-2.297-1.584-.901-3.26-1.757-5.03-2.568-1.769-.901-3.446-1.802-5.03-2.703-1.405-.865-2.758-1.813-4.052-2.837-.604-.493-1.164-1.035-1.676-1.622-.405-.617-.69-1.305-.839-2.027-.215-1.024-.356-2.063-.419-3.108v-5.135c-.025-1.941.068-3.881.28-5.811.107-1.178.439-2.324.978-3.378.474-.751 1.227-1.286 2.095-1.486.839-.271 3.171-.406 4.475-.406 2.981 0 4.843.856 5.588 2.568.59 1.082.922 2.283.973 3.513.032.984.046 2.263.05 3.604h.053c0 .018-.003.036-.003.054 0 1.998.797 3.914 2.216 5.326 1.419 1.413 3.343 2.206 5.35 2.206 2.006 0 3.931-.793 5.35-2.206 1.419-1.412 2.216-3.328 2.216-5.326 0-.018-.003-.035-.003-.054h.003c.001-1.501.003-2.847.003-3.604z" fill="#000"/><path d="m496.357 471.934c.007-1.227-.243-2.443-.733-3.568-.49-1.126-1.209-2.137-2.112-2.969-.902-.832-1.968-1.466-3.13-1.863-1.161-.396-2.393-.547-3.616-.44-1.223.106-2.41.466-3.486 1.056-1.076.591-2.017 1.4-2.763 2.375-.745.975-1.28 2.095-1.568 3.288-.289 1.193-.326 2.433-.108 3.641v31.461c0 .522-.207 1.023-.577 1.392-.369.37-.87.577-1.392.577h-10.916c-.522 0-1.023-.207-1.392-.577-.369-.369-.577-.87-.577-1.392v-32.783c0-.033-.004-.066-.005-.099.001-.033.005-.066.005-.099 0-2.341-.93-4.587-2.585-6.242-1.656-1.656-3.901-2.586-6.243-2.586-2.341 0-4.586.93-6.242 2.586-1.655 1.655-2.586 3.901-2.586 6.242 0 .033.005.066.005.099.001.033-.005.066-.005.099v88.421l.001.017-.001.016c0 2.341.931 4.587 2.586 6.242 1.656 1.656 3.901 2.586 6.242 2.586 2.342 0 4.587-.93 6.243-2.586 1.655-1.655 2.585-3.901 2.585-6.242v-.016-.017-35.025c0-.522.208-1.023.577-1.392s.87-.577 1.392-.577h10.916c.522 0 1.023.208 1.392.577.37.369.577.87.577 1.392v33.505c-.229 1.269-.176 2.573.155 3.82.332 1.246.933 2.404 1.762 3.392.83.987 1.866 1.78 3.036 2.322 1.171.542 2.446.82 3.735.814.012 0 .023-.002.035-.002s.023.002.035.002c1.15 0 2.289-.227 3.352-.667 1.062-.44 2.028-1.085 2.841-1.898s1.458-1.779 1.899-2.842c.44-1.062.666-2.201.666-3.351v-88.561c0-.022-.003-.042-.003-.064 0-.021.003-.042.003-.064z" fill="#000"/><path d="m614.198 569.138c-1.38 0-2.498-1.119-2.498-2.499v-94.961c0-4.759 3.858-8.617 8.618-8.617 4.759 0 8.618 3.858 8.618 8.617v77.44c0 .918.744 1.663 1.662 1.663h23.452c5.069 0 9.178 4.109 9.178 9.178 0 5.069-4.109 9.179-9.178 9.179z" fill="#000"/><path d="m556.615 569.138c-1.38 0-2.499-1.119-2.499-2.499v-94.961c0-4.759 3.859-8.617 8.618-8.617 4.76 0 8.618 3.858 8.618 8.617v77.44c0 .918.744 1.663 1.663 1.663h23.451c5.069 0 9.179 4.109 9.179 9.178 0 5.069-4.11 9.179-9.179 9.179z" fill="#000"/><path d="m505.842 569.138c-1.88 0-3.404-1.524-3.404-3.404v-99.259c0-1.886 1.529-3.414 3.415-3.414h33.493c4.837 0 8.758 3.921 8.758 8.758 0 4.836-3.921 8.758-8.758 8.758h-17.546c-1.174 0-2.126.951-2.126 2.125v21.844c0 1.157.938 2.094 2.094 2.094h17.578c4.605 0 8.338 3.733 8.338 8.338 0 4.605-3.733 8.338-8.338 8.338h-17.578c-1.156 0-2.094.937-2.094 2.094v23.256c0 1.168.947 2.115 2.115 2.115h16.997c5.069 0 9.178 4.109 9.178 9.178 0 5.069-4.109 9.179-9.178 9.179z" fill="#000"/></svg>