<svg fill="none" height="816" viewBox="0 0 816 816" width="816" xmlns="http://www.w3.org/2000/svg"><g stroke="#fff" stroke-linecap="round"><path d="m320.736 337.538-58.198 69.311" stroke-linejoin="round" stroke-width="6.26753"/><circle cx="277.301" cy="353.08" r="12.0128" stroke-linejoin="round" stroke-width="9.78818"/><circle cx="305.776" cy="391.343" r="12.0128" stroke-linejoin="round" stroke-width="9.78818"/><path d="m386.371 405.116h-41.559" stroke-linejoin="round" stroke-width="6.26753"/><path d="m401.122 560.338h-121.011c-24.362 0-44.111-19.749-44.111-44.111v-225.116c0-24.362 19.749-44.111 44.111-44.111h246.32c24.361 0 44.11 19.749 44.11 44.111v269.227" stroke-width="17.8359"/><path d="m240.818 308.383 322.381-.001" stroke-width="17.8359"/></g><path d="m470.271 560.18c0-2.436-.967-4.772-2.689-6.494-1.723-1.722-4.059-2.69-6.494-2.69-.071 0-.139.009-.209.011h-20.643c-.173 0-.344-.043-.498-.124-.153-.082-.284-.2-.381-.343-.098-.144-.158-.31-.177-.482-.018-.173.006-.348.071-.509l30.191-75.273c.496-1.237.681-2.577.539-3.902-.141-1.326-.606-2.596-1.353-3.7s-1.753-2.008-2.93-2.634c-1.177-.625-2.49-.952-3.823-.952h-31.82c-.18-.01-.358-.027-.541-.027-1.175 0-2.339.232-3.426.681-1.086.45-2.072 1.11-2.904 1.941-.831.831-1.49 1.818-1.94 2.904s-.681 2.25-.681 3.425v.002.002c-.001 1.175.23 2.339.68 3.426.449 1.086 1.109 2.073 1.94 2.904s1.818 1.49 2.905 1.939c1.086.449 2.25.68 3.426.679.141 0 .277-.015.416-.021h16.489c.181 0 .36.044.52.129.159.085.296.208.398.358.101.15.164.322.184.502.019.18-.006.362-.073.53l-26.18 65.382c-.466 1.164-.705 2.406-.705 3.659v8.017c0 2.611 1.037 5.115 2.883 6.961s4.349 2.883 6.96 2.883h30.687c1.205 0 2.399-.238 3.513-.699 1.113-.461 2.125-1.137 2.977-1.99.853-.852 1.529-1.864 1.99-2.977.461-1.114.699-2.307.698-3.513v-.002z" fill="#fff"/><path d="m523.418 485.851c.064-3.494-.264-6.984-.978-10.406-.559-2.882-1.677-5.18-3.354-6.891-1.583-1.802-3.819-3.063-6.706-3.784-2.795-.811-6.381-1.216-10.758-1.216-4.192 0-8.992.405-11.88 1.216-2.615.618-4.994 1.979-6.846 3.919-1.676 1.892-2.887 4.459-3.632 7.702-.746 3.153-1.118 7.162-1.118 12.027 0 4.685.046 8.468.139 11.351.122 2.358.402 4.706.839 7.027.351 1.535.965 2.998 1.816 4.324.802 1.145 1.74 2.188 2.794 3.108 1.463 1.285 3.055 2.417 4.751 3.379 1.863 1.081 3.772 2.117 5.728 3.108s3.819 2.027 5.589 3.107c1.668.938 3.216 2.072 4.611 3.379.552.597 1.065 1.229 1.537 1.892.339.4.603.858.779 1.351.161.442.296.892.404 1.349.153.711.225 1.437.214 2.165.093 1.081.14 2.567.14 4.459.039 2.574-.101 5.148-.419 7.703-.091 1.456-.471 2.88-1.118 4.188-.492.849-1.292 1.478-2.236 1.758-.931.269-4.151.405-5.549.405-1.131.021-2.26-.115-3.353-.405-.88-.398-1.612-1.059-2.096-1.892-.552-1.296-.928-2.659-1.117-4.054-.21-2.242-.303-4.493-.28-6.745 0-.251-.013-.501-.039-.751h-.056c-.257-1.793-1.155-3.433-2.529-4.62-1.375-1.186-3.133-1.84-4.952-1.84s-3.577.654-4.951 1.84c-1.374 1.187-2.272 2.827-2.529 4.62h-.044c-.03.274-.043.55-.041.827.001.064.002.126.002.19 0 .019-.003.037-.003.056 0 .031.005.062.005.093.023 1.774.048 3.368.048 4.167 0 5.316.373 9.64 1.118 12.973.838 3.243 2.142 5.81 3.912 7.703 1.833 1.837 4.163 3.104 6.706 3.648 3.247.783 6.581 1.146 9.92 1.081 4.471 0 10.253-.405 13.233-1.216 2.82-.706 5.326-2.322 7.126-4.595 1.863-2.252 3.167-5.36 3.912-9.324.838-4.053 1.258-9.233 1.258-15.54 0-4.594-.14-8.288-.42-11.08-.083-2.346-.507-4.667-1.257-6.892-.542-1.624-1.45-3.104-2.655-4.325-1.217-1.236-2.577-2.325-4.052-3.243-1.349-.848-2.749-1.615-4.191-2.297-1.584-.901-3.26-1.757-5.03-2.568-1.77-.9-3.446-1.801-5.03-2.702-1.405-.866-2.758-1.814-4.052-2.838-.604-.492-1.165-1.035-1.676-1.621-.405-.618-.69-1.305-.839-2.027-.216-1.025-.356-2.064-.419-3.108v-5.136c-.026-1.94.068-3.881.279-5.81.108-1.178.44-2.325.979-3.379.474-.751 1.227-1.285 2.095-1.486.839-.27 3.171-.405 4.475-.405 2.98 0 4.843.855 5.588 2.567.59 1.082.922 2.284.973 3.514.031.983.046 2.263.05 3.604h.052c0 .018-.002.035-.002.054 0 1.997.797 3.913 2.216 5.326 1.419 1.412 3.343 2.206 5.35 2.206 2.006 0 3.931-.794 5.35-2.206 1.418-1.413 2.216-3.329 2.216-5.326 0-.018-.003-.036-.003-.054h.003c.001-1.502.003-2.847.003-3.604z" fill="#fff"/><path d="m579.357 471.935c.006-1.228-.243-2.443-.733-3.569-.49-1.125-1.209-2.136-2.112-2.968-.902-.832-1.968-1.467-3.13-1.863-1.161-.397-2.393-.547-3.616-.441s-2.41.466-3.486 1.057-2.017 1.399-2.763 2.374c-.745.975-1.28 2.095-1.568 3.288-.289 1.193-.326 2.433-.108 3.641v31.462c0 .522-.207 1.023-.577 1.392-.369.369-.87.576-1.392.576h-10.916c-.522 0-1.023-.207-1.392-.576s-.577-.87-.577-1.392v-32.783c0-.034-.004-.066-.005-.1.001-.033.005-.065.005-.099 0-2.341-.93-4.586-2.585-6.242-1.656-1.655-3.901-2.586-6.243-2.586-2.341 0-4.586.931-6.242 2.586-1.656 1.656-2.586 3.901-2.586 6.242 0 .034.005.066.005.099.001.034-.005.066-.005.1v88.421l.001.016-.001.017c0 2.341.93 4.586 2.586 6.242 1.656 1.655 3.901 2.586 6.242 2.586 2.342 0 4.587-.931 6.243-2.586 1.655-1.656 2.585-3.901 2.585-6.242v-.017-.016-35.025c0-.523.208-1.023.577-1.393.369-.369.87-.576 1.392-.576h10.916c.522 0 1.023.207 1.392.576.37.37.577.87.577 1.393v33.505c-.229 1.269-.176 2.573.155 3.819s.933 2.404 1.762 3.392c.83.988 1.866 1.781 3.036 2.323s2.446.82 3.735.813c.012 0 .023-.001.035-.001s.023.001.035.001c1.15 0 2.289-.226 3.352-.666 1.062-.44 2.028-1.085 2.841-1.899.813-.813 1.458-1.778 1.899-2.841.44-1.063.666-2.202.666-3.352v-88.56c0-.022-.003-.043-.003-.064 0-.022.003-.043.003-.064z" fill="#fff"/></svg>